<svg width="19" height="19" viewBox="0 0 19 19" fill="none" xmlns="http://www.w3.org/2000/svg">
<g clip-path="url(#clip0_145_165)">
<path d="M7.3175 7.25C7.49383 6.74875 7.84186 6.32608 8.29997 6.05685C8.75807 5.78762 9.29667 5.6892 9.82038 5.77903C10.3441 5.86886 10.8191 6.14114 11.1613 6.54765C11.5035 6.95415 11.6908 7.46864 11.69 8C11.69 9.5 9.44 10.25 9.44 10.25M9.5 13.25H9.5075M17 9.5C17 13.6421 13.6421 17 9.5 17C5.35786 17 2 13.6421 2 9.5C2 5.35786 5.35786 2 9.5 2C13.6421 2 17 5.35786 17 9.5Z" stroke="#A6003D" stroke-width="2.5" stroke-linecap="round" stroke-linejoin="round"/>
</g>
<defs>
<clipPath id="clip0_145_165">
<rect width="18" height="18" fill="white" transform="translate(0.5 0.5)"/>
</clipPath>
</defs>
</svg>
